<svg width="24" height="24" viewBox="0 0 24 24" fill="none" xmlns="http://www.w3.org/2000/svg">
<rect width="24" height="24" rx="12" fill="#35B972"/>
<path fill-rule="evenodd" clip-rule="evenodd" d="M12 18C12.2273 18 12.4453 17.9144 12.606 17.7621C12.7667 17.6097 12.857 17.4031 12.857 17.1876V7.77502L16.5352 11.2635C16.6149 11.339 16.7095 11.399 16.8136 11.4398C16.9177 11.4807 17.0292 11.5018 17.1419 11.5018C17.2546 11.5018 17.3662 11.4807 17.4703 11.4398C17.5744 11.399 17.669 11.339 17.7487 11.2635C17.8284 11.188 17.8916 11.0983 17.9347 10.9996C17.9778 10.9009 18 10.7951 18 10.6883C18 10.5815 17.9778 10.4757 17.9347 10.377C17.8916 10.2783 17.8284 10.1887 17.7487 10.1131L12.6067 5.23868C12.5271 5.16302 12.4326 5.10299 12.3285 5.06204C12.2243 5.02108 12.1127 5 12 5C11.8873 5 11.7757 5.02108 11.6715 5.06204C11.5674 5.10299 11.4729 5.16302 11.3933 5.23868L6.25132 10.1131C6.0904 10.2657 6 10.4726 6 10.6883C6 10.9041 6.0904 11.111 6.25132 11.2635C6.41224 11.4161 6.6305 11.5018 6.85807 11.5018C7.08565 11.5018 7.3039 11.4161 7.46482 11.2635L11.143 7.77502V17.1876C11.143 17.4031 11.2333 17.6097 11.394 17.7621C11.5547 17.9144 11.7727 18 12 18Z" fill="white"/>
</svg>
