<svg width="24" height="24" viewBox="0 0 24 24" fill="none" xmlns="http://www.w3.org/2000/svg">
<rect width="24" height="24" rx="12" fill="#FF6151"/>
<path fill-rule="evenodd" clip-rule="evenodd" d="M12 5C12.2273 5 12.4453 5.08559 12.606 5.23795C12.7667 5.39031 12.857 5.59695 12.857 5.81241V15.225L16.5352 11.7365C16.6149 11.661 16.7095 11.601 16.8136 11.5602C16.9177 11.5193 17.0292 11.4982 17.1419 11.4982C17.2546 11.4982 17.3662 11.5193 17.4703 11.5602C17.5744 11.601 17.669 11.661 17.7487 11.7365C17.8284 11.812 17.8916 11.9017 17.9347 12.0004C17.9778 12.0991 18 12.2049 18 12.3117C18 12.4185 17.9778 12.5243 17.9347 12.623C17.8916 12.7217 17.8284 12.8113 17.7487 12.8869L12.6067 17.7613C12.5271 17.837 12.4326 17.897 12.3285 17.938C12.2243 17.9789 12.1127 18 12 18C11.8873 18 11.7757 17.9789 11.6715 17.938C11.5674 17.897 11.4729 17.837 11.3933 17.7613L6.25132 12.8869C6.0904 12.7343 6 12.5274 6 12.3117C6 12.0959 6.0904 11.889 6.25132 11.7365C6.41224 11.5839 6.6305 11.4982 6.85807 11.4982C7.08565 11.4982 7.3039 11.5839 7.46482 11.7365L11.143 15.225V5.81241C11.143 5.59695 11.2333 5.39031 11.394 5.23795C11.5547 5.08559 11.7727 5 12 5Z" fill="white"/>
</svg>
