<svg width="117" height="134" viewBox="0 0 117 134" fill="none" xmlns="http://www.w3.org/2000/svg">
<path d="M35.5157 23.8721L53.3731 14.1008V119.898L45.9699 115.119L45.6238 41.3928L35.8619 41.9327L35.5157 109.454L27.9686 104.665L27.7654 54.1962H17.994V99.3456L10.1113 94.2566L10.2542 39.4417L27.4192 28.7483L27.7654 17.4704L0.483887 33.4349V100.565L58.4271 133.999L116.513 100.285L116.37 33.4381L89.0878 17.8071L89.434 28.7483L106.599 39.4428L106.742 94.2555L98.8592 99.3456L99.1958 54.5328L89.0878 54.1962L88.8845 104.664L81.3385 109.454V41.3928H71.2304L70.8843 115.111L63.4811 119.898V14.1008L81.3385 24.2088L80.9923 13.1533L58.4271 -0.000488281L35.8609 13.1533L35.5157 23.8721Z" fill="#921C2E"/>
</svg>
