<svg width="32" height="32" viewBox="0 0 32 32" fill="none" xmlns="http://www.w3.org/2000/svg">
<g clip-path="url(#clip0_11_3726)">
<rect width="32" height="32" rx="6" fill="white" fill-opacity="0.1"/>
<g clip-path="url(#clip1_11_3726)">
<path d="M11 20C15.9706 20 20 15.9706 20 11C20 6.02944 15.9706 2 11 2C6.02944 2 2 6.02944 2 11C2 15.9706 6.02944 20 11 20Z" fill="#063397"/>
<path d="M8.39485 14.5997L8.59485 15.1997H9.19485L8.79485 15.5997L8.99485 16.1997L8.39485 15.7997L7.99485 16.1997L8.19485 15.5997L7.59485 15.1997H8.19485L8.39485 14.5997Z" fill="#FECB17"/>
<path d="M13.5955 14.5997L13.7955 15.1997H14.3955L13.9955 15.5997L14.1955 16.1997L13.5955 15.7997L13.1955 16.1997V15.5997L12.7955 15.1997H13.3955L13.5955 14.5997Z" fill="#FECB17"/>
<path d="M8.39485 5.79926L8.59485 6.39925H9.19485L8.79485 6.59925L8.99485 7.19925L8.39485 6.79924L7.99485 7.19925L8.19485 6.59925L7.59485 6.39925H8.19485L8.39485 5.79926Z" fill="#FECB17"/>
<path d="M13.5955 5.79926L13.7955 6.39925H14.3955L13.9955 6.59925L14.1955 7.19925L13.5955 6.79924L13.1955 7.19925V6.59925L12.7955 6.39925H13.3955L13.5955 5.79926Z" fill="#FECB17"/>
<path d="M15.3962 7.59637L15.5962 8.19639H16.3962L15.7962 8.59638L15.9962 9.19637L15.3962 8.79638L14.9962 9.19637L15.1962 8.59638L14.5962 8.19639H15.3962V7.59637Z" fill="#FECB17"/>
<path d="M6.59773 7.59637L6.79773 8.19639H7.39773L6.79773 8.59638L6.99773 9.19637L6.59773 8.79638L5.99773 9.19637L6.19773 8.59638L5.79773 8.19639H6.39773L6.59773 7.59637Z" fill="#FECB17"/>
<path d="M15.3962 12.7972L15.5962 13.3972H16.3962L15.7962 13.7972L15.9962 14.3972L15.3962 13.9972L14.9962 14.3972L15.1962 13.7972L14.5962 13.3972H15.3962V12.7972Z" fill="#FECB17"/>
<path d="M6.59773 12.7972L6.79773 13.3972H7.39773L6.79773 13.7972L6.99773 14.3972L6.59773 13.9973L5.99773 14.3972L6.19773 13.7972L5.79773 13.3972H6.39773L6.59773 12.7972Z" fill="#FECB17"/>
<path d="M10.9979 4.99896L11.1979 5.59898H11.7979L11.3979 5.99897L11.5979 6.59898L10.9979 6.19897L10.5979 6.59898L10.7979 5.99897L10.1979 5.59898H10.7979L10.9979 4.99896Z" fill="#FECB17"/>
<path d="M10.9979 15.4L11.1979 16H11.7979L11.3979 16.4L11.5979 17L10.9979 16.6L10.5979 17L10.7979 16.4L10.1979 16H10.7979L10.9979 15.4Z" fill="#FECB17"/>
<path d="M16.1969 10.1996L16.3968 10.7997H16.9968L16.3968 11.1997L16.5969 11.7996L16.1969 11.3997L15.5968 11.7996L15.7969 11.1997L15.3969 10.7997H15.9968L16.1969 10.1996Z" fill="#FECB17"/>
<path d="M5.79719 10.1995L5.99719 10.7995H6.59719L6.19719 11.1995L6.39719 11.7995L5.79719 11.3995L5.39719 11.7995L5.59719 11.1995L4.99719 10.7995H5.59719L5.79719 10.1995Z" fill="#FECB17"/>
<path d="M14.2771 15.0306V26.9632C12.8477 25.3452 12.0308 23.3227 12.0308 20.8957C11.8266 18.671 12.6435 16.6486 14.2771 15.0306Z" fill="#D42B1E"/>
<path d="M27.7569 15.0337V26.9663C26.1232 28.7865 23.6728 30 21.0181 30C18.3635 30 15.9131 28.7865 14.2794 26.9663V15.0337C15.9131 13.2135 18.3635 12 21.0181 12C23.6728 12 26.1232 13.2135 27.7569 15.0337Z" fill="white"/>
<path d="M30 21.0979C30 23.3226 29.1832 25.5474 27.7538 27.1653V15.0305C29.1832 16.6485 30 18.671 30 21.0979Z" fill="#D42B1E"/>
<path d="M23.6688 23.1217L26.3234 21.0992L25.7108 20.6947L25.5066 20.4925L25.915 18.8745L24.4856 19.279C24.4856 19.279 24.2814 19.279 24.2814 19.0767L24.0772 18.2677L22.852 19.6835C22.6478 19.8857 22.4436 19.6835 22.4436 19.4812L23.0562 16.6498L22.2394 17.2565C22.0352 17.2565 22.0352 17.2565 21.831 17.0543L21.0141 15.4363L19.9931 17.0543C19.9931 17.2565 19.7889 17.2565 19.5847 17.2565L18.7679 16.852L19.3805 19.6835C19.3805 19.8857 19.1763 20.088 18.9721 19.8857L17.7469 18.2677L17.5427 19.0767L17.3385 19.279L15.909 18.8745L16.3174 20.4925C16.3174 20.4925 16.3174 20.6947 16.1132 20.6947L15.7048 21.0992L18.3595 23.1217C18.5637 23.1217 18.5637 23.3239 18.5637 23.5262L18.1553 24.1329L20.6057 23.7284C20.8099 23.7284 20.8099 23.7284 20.8099 23.9307V26.5599H21.2183V23.9307C21.2183 23.7284 21.4225 23.7284 21.4225 23.7284L23.873 24.1329L23.6688 23.5262C23.4646 23.3239 23.6688 23.1217 23.6688 23.1217Z" fill="#D42B1E"/>
<path d="M11 20C15.9706 20 20 15.9706 20 11C20 6.02944 15.9706 2 11 2C6.02944 2 2 6.02944 2 11C2 15.9706 6.02944 20 11 20Z" fill="#063397"/>
<path d="M8.39485 14.5997L8.59485 15.1997H9.19485L8.79485 15.5997L8.99485 16.1997L8.39485 15.7997L7.99485 16.1997L8.19485 15.5997L7.59485 15.1997H8.19485L8.39485 14.5997Z" fill="#FECB17"/>
<path d="M13.5955 14.5997L13.7955 15.1997H14.3955L13.9955 15.5997L14.1955 16.1997L13.5955 15.7997L13.1955 16.1997V15.5997L12.7955 15.1997H13.3955L13.5955 14.5997Z" fill="#FECB17"/>
<path d="M8.39485 5.79926L8.59485 6.39925H9.19485L8.79485 6.59925L8.99485 7.19925L8.39485 6.79924L7.99485 7.19925L8.19485 6.59925L7.59485 6.39925H8.19485L8.39485 5.79926Z" fill="#FECB17"/>
<path d="M13.5955 5.79926L13.7955 6.39925H14.3955L13.9955 6.59925L14.1955 7.19925L13.5955 6.79924L13.1955 7.19925V6.59925L12.7955 6.39925H13.3955L13.5955 5.79926Z" fill="#FECB17"/>
<path d="M15.3962 7.59637L15.5962 8.19639H16.3962L15.7962 8.59638L15.9962 9.19637L15.3962 8.79638L14.9962 9.19637L15.1962 8.59638L14.5962 8.19639H15.3962V7.59637Z" fill="#FECB17"/>
<path d="M6.59773 7.59637L6.79773 8.19639H7.39773L6.79773 8.59638L6.99773 9.19637L6.59773 8.79638L5.99773 9.19637L6.19773 8.59638L5.79773 8.19639H6.39773L6.59773 7.59637Z" fill="#FECB17"/>
<path d="M15.3962 12.7972L15.5962 13.3972H16.3962L15.7962 13.7972L15.9962 14.3972L15.3962 13.9972L14.9962 14.3972L15.1962 13.7972L14.5962 13.3972H15.3962V12.7972Z" fill="#FECB17"/>
<path d="M6.59773 12.7972L6.79773 13.3972H7.39773L6.79773 13.7972L6.99773 14.3972L6.59773 13.9973L5.99773 14.3972L6.19773 13.7972L5.79773 13.3972H6.39773L6.59773 12.7972Z" fill="#FECB17"/>
<path d="M10.9979 4.99896L11.1979 5.59898H11.7979L11.3979 5.99897L11.5979 6.59898L10.9979 6.19897L10.5979 6.59898L10.7979 5.99897L10.1979 5.59898H10.7979L10.9979 4.99896Z" fill="#FECB17"/>
<path d="M10.9979 15.4L11.1979 16H11.7979L11.3979 16.4L11.5979 17L10.9979 16.6L10.5979 17L10.7979 16.4L10.1979 16H10.7979L10.9979 15.4Z" fill="#FECB17"/>
<path d="M16.1969 10.1996L16.3968 10.7997H16.9968L16.3968 11.1997L16.5969 11.7996L16.1969 11.3997L15.5968 11.7996L15.7969 11.1997L15.3969 10.7997H15.9968L16.1969 10.1996Z" fill="#FECB17"/>
<path d="M5.79719 10.1995L5.99719 10.7995H6.59719L6.19719 11.1995L6.39719 11.7995L5.79719 11.3995L5.39719 11.7995L5.59719 11.1995L4.99719 10.7995H5.59719L5.79719 10.1995Z" fill="#FECB17"/>
<path d="M14.2771 15.0306V26.9632C12.8477 25.3452 12.0308 23.3227 12.0308 20.8957C11.8266 18.671 12.6435 16.6486 14.2771 15.0306Z" fill="#D42B1E"/>
<path d="M27.7569 15.0337V26.9663C26.1232 28.7865 23.6728 30 21.0181 30C18.3635 30 15.9131 28.7865 14.2794 26.9663V15.0337C15.9131 13.2135 18.3635 12 21.0181 12C23.6728 12 26.1232 13.2135 27.7569 15.0337Z" fill="white"/>
<path d="M30 21.0979C30 23.3226 29.1832 25.5474 27.7538 27.1653V15.0305C29.1832 16.6485 30 18.671 30 21.0979Z" fill="#D42B1E"/>
<path d="M23.6688 23.1217L26.3234 21.0992L25.7108 20.6947L25.5066 20.4925L25.915 18.8745L24.4856 19.279C24.4856 19.279 24.2814 19.279 24.2814 19.0767L24.0772 18.2677L22.852 19.6835C22.6478 19.8857 22.4436 19.6835 22.4436 19.4812L23.0562 16.6498L22.2394 17.2565C22.0352 17.2565 22.0352 17.2565 21.831 17.0543L21.0141 15.4363L19.9931 17.0543C19.9931 17.2565 19.7889 17.2565 19.5847 17.2565L18.7679 16.852L19.3805 19.6835C19.3805 19.8857 19.1763 20.088 18.9721 19.8857L17.7469 18.2677L17.5427 19.0767L17.3385 19.279L15.909 18.8745L16.3174 20.4925C16.3174 20.4925 16.3174 20.6947 16.1132 20.6947L15.7048 21.0992L18.3595 23.1217C18.5637 23.1217 18.5637 23.3239 18.5637 23.5262L18.1553 24.1329L20.6057 23.7284C20.8099 23.7284 20.8099 23.7284 20.8099 23.9307V26.5599H21.2183V23.9307C21.2183 23.7284 21.4225 23.7284 21.4225 23.7284L23.873 24.1329L23.6688 23.5262C23.4646 23.3239 23.6688 23.1217 23.6688 23.1217Z" fill="#D42B1E"/>
</g>
</g>
<defs>
<clipPath id="clip0_11_3726">
<rect width="32" height="32" rx="6" fill="white"/>
</clipPath>
<clipPath id="clip1_11_3726">
<rect width="32" height="32" rx="6" fill="white"/>
</clipPath>
</defs>
</svg>
